<svg xmlns="http://www.w3.org/2000/svg" width="45" height="45" viewBox="0 0 45 45">
  <g id="Group_13" data-name="Group 13" transform="translate(-3425 -5355)">
    <path id="iconmonstr-instagram-15" d="M25,14.754c3.337,0,3.733.013,5.052.073,3.39.154,4.969,1.76,5.125,5.123.058,1.319.071,1.712.071,5.05s-.013,3.733-.071,5.05c-.156,3.36-1.733,4.971-5.125,5.125-1.319.058-1.712.073-5.052.073s-3.733-.013-5.05-.073c-3.4-.156-4.969-1.769-5.125-5.125-.058-1.317-.073-1.712-.073-5.05s.015-3.733.073-5.05c.154-3.365,1.733-4.971,5.125-5.125C21.267,14.765,21.662,14.754,25,14.754ZM25,12.5c-3.4,0-3.819.015-5.154.077-4.542.208-7.062,2.727-7.271,7.269-.06,1.335-.075,1.76-.075,5.154s.015,3.821.075,5.154c.208,4.54,2.729,7.063,7.271,7.271,1.335.06,1.758.075,5.154.075s3.821-.015,5.156-.075c4.533-.208,7.065-2.727,7.269-7.271.06-1.333.075-1.758.075-5.154s-.015-3.819-.075-5.154c-.2-4.535-2.727-7.063-7.269-7.269C28.821,12.515,28.4,12.5,25,12.5Zm0,6.081A6.419,6.419,0,1,0,31.419,25,6.419,6.419,0,0,0,25,18.581Zm0,10.585A4.167,4.167,0,1,1,29.169,25,4.166,4.166,0,0,1,25,29.167Zm6.671-12.337a1.5,1.5,0,1,0,1.5,1.5A1.5,1.5,0,0,0,31.671,16.829Z" transform="translate(3422.5 5352.5)" fill="#fff"/>
    <g id="Rectangle_456" data-name="Rectangle 456" transform="translate(3425 5355)" fill="none" stroke="#fff" stroke-width="2">
      <rect width="45" height="45" stroke="none"/>
      <rect x="1" y="1" width="43" height="43" fill="none"/>
    </g>
  </g>
</svg>
